<svg width="25" height="25" viewBox="0 0 25 25" fill="none" xmlns="http://www.w3.org/2000/svg">
<path d="M0.0559973 0.732433C0.133067 0.448918 0.283286 0.222172 0.473627 0.10205C0.663968 -0.0180726 0.878848 -0.0217374 1.07102 0.0918614L3.8147 1.71172C4.37307 2.04123 4.99593 2.04123 5.55429 1.71172L7.13773 0.776213C8.06849 0.226834 9.10681 0.226834 10.0376 0.776213L11.6226 1.71172C12.1809 2.04123 12.8038 2.04123 13.3622 1.71172L14.9456 0.776213C15.8764 0.226834 16.9147 0.226834 17.8454 0.776213L19.4304 1.71172C19.9888 2.04123 20.6117 2.04123 21.17 1.71172L23.9137 0.0918614C24.0093 0.0318715 24.1121 0.000644556 24.216 9.87341e-06C24.3199 -0.000624809 24.4228 0.0293456 24.5188 0.0881652C24.6147 0.146985 24.7017 0.23347 24.7748 0.342554C24.8478 0.451638 24.9053 0.581126 24.9439 0.72343C24.9826 0.865735 25.0016 1.01799 24.9999 1.17128C24.9982 1.32458 24.9757 1.47582 24.9339 1.61614C24.892 1.75647 24.8316 1.88306 24.7562 1.9885C24.6808 2.09394 24.5918 2.1761 24.4946 2.23017L21.7494 3.85004C20.8186 4.39941 19.7803 4.39941 18.8495 3.85004L17.2661 2.91452C16.7077 2.58502 16.0849 2.58502 15.5265 2.91452L13.9415 3.85004C13.0107 4.39941 11.9724 4.39941 11.0417 3.85004L9.45822 2.91452C8.89986 2.58502 8.277 2.58502 7.71863 2.91452L6.13364 3.85004C5.20287 4.39941 4.16456 4.39941 3.2338 3.85004L0.490114 2.23017C0.297976 2.11645 0.14431 1.89479 0.0629022 1.61393C-0.0185052 1.33307 -0.0209888 1.016 0.0559973 0.732433ZM0.0559973 7.64508C0.133067 7.36156 0.283286 7.13482 0.473627 7.01469C0.663968 6.89457 0.878848 6.89091 1.07102 7.00451L3.8147 8.62437C4.37307 8.95387 4.99593 8.95387 5.55429 8.62437L7.13773 7.68886C8.06849 7.13948 9.10681 7.13948 10.0376 7.68886L11.6226 8.62437C12.1809 8.95387 12.8038 8.95387 13.3622 8.62437L14.9456 7.68886C15.8764 7.13948 16.9147 7.13948 17.8454 7.68886L19.4304 8.62437C19.9888 8.95387 20.6117 8.95387 21.17 8.62437L23.9137 7.00451C24.0093 6.94452 24.1121 6.91329 24.216 6.91265C24.3199 6.91202 24.4228 6.94199 24.5188 7.00081C24.6147 7.05963 24.7017 7.14612 24.7748 7.2552C24.8478 7.36428 24.9053 7.49377 24.9439 7.63607C24.9826 7.77838 25.0016 7.93064 24.9999 8.08393C24.9982 8.23722 24.9757 8.38846 24.9339 8.52879C24.892 8.66911 24.8316 8.7957 24.7562 8.90114C24.6808 9.00658 24.5918 9.08874 24.4946 9.14282L21.7494 10.7627C20.8186 11.3121 19.7803 11.3121 18.8495 10.7627L17.2661 9.82717C16.7077 9.49766 16.0849 9.49766 15.5265 9.82717L13.9415 10.7627C13.0107 11.3121 11.9724 11.3121 11.0417 10.7627L9.45822 9.82717C8.89986 9.49766 8.277 9.49766 7.71863 9.82717L6.13364 10.7627C5.20287 11.3121 4.16456 11.3121 3.2338 10.7627L0.490114 9.14282C0.297976 9.0291 0.14431 8.80744 0.0629022 8.52657C-0.0185052 8.24571 -0.0209888 7.92864 0.0559973 7.64508ZM0.0559973 14.5577C0.133067 14.2742 0.283286 14.0475 0.473627 13.9273C0.663968 13.8072 0.878848 13.8036 1.07102 13.9172L3.8147 15.537C4.37307 15.8665 4.99593 15.8665 5.55429 15.537L7.13773 14.6015C8.06849 14.0521 9.10681 14.0521 10.0376 14.6015L11.6226 15.537C12.1809 15.8665 12.8038 15.8665 13.3622 15.537L14.9456 14.6015C15.8764 14.0521 16.9147 14.0521 17.8454 14.6015L19.4304 15.537C19.9888 15.8665 20.6117 15.8665 21.17 15.537L23.9137 13.9172C24.0093 13.8572 24.1121 13.8259 24.216 13.8253C24.3199 13.8247 24.4228 13.8546 24.5188 13.9135C24.6147 13.9723 24.7017 14.0588 24.7748 14.1678C24.8478 14.2769 24.9053 14.4064 24.9439 14.5487C24.9826 14.691 25.0016 14.8433 24.9999 14.9966C24.9982 15.1499 24.9757 15.3011 24.9339 15.4414C24.892 15.5818 24.8316 15.7083 24.7562 15.8138C24.6808 15.9192 24.5918 16.0014 24.4946 16.0555L21.7494 17.6753C20.8186 18.2247 19.7803 18.2247 18.8495 17.6753L17.2661 16.7398C16.7077 16.4103 16.0849 16.4103 15.5265 16.7398L13.9415 17.6753C13.0107 18.2247 11.9724 18.2247 11.0417 17.6753L9.45822 16.7398C8.89986 16.4103 8.277 16.4103 7.71863 16.7398L6.13364 17.6753C5.20287 18.2247 4.16456 18.2247 3.2338 17.6753L0.490114 16.0555C0.297976 15.9417 0.14431 15.7201 0.0629022 15.4392C-0.0185052 15.1584 -0.0209888 14.8413 0.0559973 14.5577ZM0.0559973 21.4704C0.133067 21.1868 0.283286 20.9601 0.473627 20.84C0.663968 20.7199 0.878848 20.7162 1.07102 20.8298L3.8147 22.4497C4.37307 22.7792 4.99593 22.7792 5.55429 22.4497L7.13773 21.5141C8.06849 20.9648 9.10681 20.9648 10.0376 21.5141L11.6226 22.4497C12.1809 22.7792 12.8038 22.7792 13.3622 22.4497L14.9456 21.5141C15.8764 20.9648 16.9147 20.9648 17.8454 21.5141L19.4304 22.4497C19.9888 22.7792 20.6117 22.7792 21.17 22.4497L23.9137 20.8298C24.0093 20.7698 24.1121 20.7386 24.216 20.7379C24.3199 20.7373 24.4228 20.7673 24.5188 20.8261C24.6147 20.8849 24.7017 20.9714 24.7748 21.0805C24.8478 21.1896 24.9053 21.3191 24.9439 21.4614C24.9826 21.6037 25.0016 21.7559 24.9999 21.9092C24.9982 22.0625 24.9757 22.2137 24.9339 22.3541C24.892 22.4944 24.8316 22.621 24.7562 22.7264C24.6808 22.8319 24.5918 22.914 24.4946 22.9681L21.7494 24.588C20.8186 25.1373 19.7803 25.1373 18.8495 24.588L17.2661 23.6525C16.7077 23.323 16.0849 23.323 15.5265 23.6525L13.9415 24.588C13.0107 25.1373 11.9724 25.1373 11.0417 24.588L9.45822 23.6525C8.89986 23.323 8.277 23.323 7.71863 23.6525L6.13364 24.588C5.20287 25.1373 4.16456 25.1373 3.2338 24.588L0.490114 22.9681C0.297976 22.8544 0.14431 22.6327 0.0629022 22.3519C-0.0185052 22.071 -0.0209888 21.7539 0.0559973 21.4704Z" fill="#0011FA"/>
</svg>
